<?xml version="1.0" encoding="utf-8"?>
<!-- Generator: Adobe Illustrator 19.0.0, SVG Export Plug-In . SVG Version: 6.00 Build 0)  -->
<svg version="1.1"
	 id="VARG" xmlns:dc="http://purl.org/dc/elements/1.1/" xmlns:rdf="http://www.w3.org/1999/02/22-rdf-syntax-ns#" xmlns:cc="http://web.resource.org/cc/" xmlns:sodipodi="http://inkscape.sourceforge.net/DTD/sodipodi-0.dtd" xmlns:svg="http://www.w3.org/2000/svg" xmlns:inkscape="http://www.inkscape.org/namespaces/inkscape" sodipodi:docname="Bose_logo.svg" inkscape:version="0.43" sodipodi:docbase="C:\Documents and Settings\Ángel\Escritorio\Julio 2010" sodipodi:version="0.32"
	 xmlns="http://www.w3.org/2000/svg" xmlns:xlink="http://www.w3.org/1999/xlink" x="0px" y="0px" viewBox="-292.4 286.8 149 19.1"
	 enable-background="new -292.4 286.8 149 19.1" xml:space="preserve">
<sodipodi:namedview  inkscape:cy="43.669561" inkscape:cx="95.552941" pagecolor="#ffffff" borderopacity="1.0" bordercolor="#666666" inkscape:zoom="3.4884857" inkscape:window-width="1024" inkscape:pageopacity="0.0" inkscape:pageshadow="2" inkscape:window-height="721" inkscape:window-x="-4" inkscape:window-y="-4" inkscape:current-layer="VARG" id="base">
	</sodipodi:namedview>
<path id="path5_1_" d="M-190.7,294.7h-10.5l1.7-2.9c0.7-1.2,1.3-1.6,2.4-1.6c1.1,0,1.4,0.9,0.9,1.9h10.7l1.1-1.9
	c0.8-1.4,0.8-3-1.1-3h-18.9c-1.7,0-3.1,0.2-4,1.8l-3.3,5.7c-0.9,1.6-0.9,3,1.4,3h10.9l-1.8,3.1c-0.5,0.9-1.1,1.4-2.6,1.4
	c-1.3,0-1.2-0.9-0.6-1.7h-10.6l-1.3,2.1c-0.8,1.3-0.1,2.6,1.7,2.6h18.7c1.7,0,3.2-0.8,4-2.2l3.2-5.3
	C-188.1,296.4-188.5,294.7-190.7,294.7z"/>
<path id="path7_1_" d="M-145.1,290.7c-0.9,0-1.6,0.7-1.6,1.5c0,0.8,0.7,1.5,1.6,1.5c0.9,0,1.6-0.7,1.6-1.5
	C-143.6,291.4-144.3,290.7-145.1,290.7z M-145.1,293.5c-0.7,0-1.3-0.5-1.3-1.2c0-0.7,0.6-1.2,1.3-1.2c0.7,0,1.3,0.5,1.3,1.2
	C-143.9,292.9-144.4,293.5-145.1,293.5z"/>
<path id="path9_1_" d="M-214.9,287.2h-16c-2.2,0-5,0-6.7,3l-7.1,12.1c-1,1.6-0.1,3,1.7,3h18.7c1.9,0,3.1-0.6,4.6-3l7.1-12.1
	C-211.8,288.6-213.2,287.2-214.9,287.2z M-223.9,291.8l-5.3,9c-0.7,1.3-1.3,1.4-3,1.4c-1.6,0-2.1-0.6-1.6-1.4l5.4-9
	c0.8-1.3,1.7-1.6,3.1-1.6C-224,290.2-223.2,290.6-223.9,291.8z"/>
<path id="path11_1_" sodipodi:nodetypes="cccccccccccccccccccccccccc" d="M-243,287.2h-20.6l-8.9,15H-292l0,3h39.5
	c2.6,0,3.5-1.3,4-2.3l2.1-3.7c0.6-1,0.6-2.1-0.6-2.8c1.1,0,2.7-0.8,3.6-2.4l2.1-3.6C-240.1,288.7-241.3,287.2-243,287.2z
	 M-253.6,299.3l-1.1,1.7c-0.3,0.6-0.8,1.2-2,1.2h-5.2l2.7-4.5h5.1C-253.1,297.7-253.1,298.6-253.6,299.3z M-249.1,291.8l-1.1,1.7
	c-0.3,0.6-0.8,1.2-2,1.2h-5.2l2.7-4.5h5.1C-248.7,290.2-248.7,291-249.1,291.8z"/>
<path id="path13_1_" d="M-144.3,291.8c0-0.1-0.1-0.3-0.2-0.4c-0.1-0.1-0.3-0.1-0.4-0.1h-0.8v1.7h0.3v-0.8h0.3l0.5,0.8h0.3l-0.5-0.8
	C-144.6,292.3-144.3,292.2-144.3,291.8z M-145.2,292.1h-0.3v-0.5h0.5c0.2,0,0.4,0,0.4,0.2C-144.6,292.1-144.9,292.1-145.2,292.1z"/>
<path id="polygon1317_1_" sodipodi:nodetypes="ccccccccccccc" d="M-170.5,290.2h26.6l0-3h-35.5l-10.6,18h24.7l1.8-3h-14.1l2.7-4.5
	h14.1l1.7-3h-14L-170.5,290.2z"/>
</svg>
