<?xml version="1.0" encoding="utf-8"?>
<!-- Generator: Adobe Illustrator 19.0.0, SVG Export Plug-In . SVG Version: 6.00 Build 0)  -->
<svg version="1.1" id="Layer_1" xmlns="http://www.w3.org/2000/svg" xmlns:xlink="http://www.w3.org/1999/xlink" x="0px" y="0px"
	 viewBox="-137 236.8 128 32.2" enable-background="new -137 236.8 128 32.2" xml:space="preserve">
<g>
	<path fill="#131B28" d="M-81.8,248.9L-81.8,248.9l-0.8,2.9L-81.8,248.9L-81.8,248.9z"/>
	<path fill="#131B28" d="M-77.6,255.1l-0.9,0L-77.6,255.1z"/>
	<path fill="#131B28" d="M-77.8,259.4L-77.8,259.4l-5.3,0L-77.8,259.4L-77.8,259.4z"/>
	<path fill="#131B28" d="M-76.7,255.1l-0.9,0L-76.7,255.1z"/>
	<path fill="#131B28" d="M-77.4,259l0.9-3.5L-77.4,259L-77.4,259L-77.4,259z"/>
	<path fill="#131B28" d="M-57.7,242.7l-1.7,8.1C-59.4,250.8-57.7,242.7-57.7,242.7z"/>
	<path fill="#131B28" d="M-62.2,242.7l-1.3,6.1L-62.2,242.7L-62.2,242.7z"/>
	<path fill="#131B28" d="M-58,242.3h-3.7c-0.2,0-0.4,0.2-0.5,0.4l-1.3,6.1l-1.3,6.1c0,0.2-0.2,0.4-0.5,0.4h-2.2h-0.4
		c-2.6,0-2.3-1.8-1.8-4.3c0,0,0,0,0-0.1l0.1-0.3c0,0,0,0,0-0.1l0.1-0.6l0.1-0.7c0-0.2,0.1-0.5,0.1-0.7l0.6-2.9l0.6-2.9
		c0-0.2-0.1-0.4-0.3-0.4h-3.8c-0.2,0-0.4,0.2-0.5,0.4l-0.8,3.9l-0.8,3.9c0,0,0,0,0,0l-0.1,0.4c-0.9,4.3-0.7,8.4,4.4,8.5
		c0.1,0,0.1,0,0.1,0h8c0.2,0,0.4-0.2,0.5-0.4l1.7-8.1l1.7-8.1C-57.7,242.5-57.8,242.3-58,242.3L-58,242.3z"/>
	<path fill="#131B28" d="M-43.2,255.3c0.2,0,0.3,0.2,0.3,0.4l-0.4,1.8"/>
	<path fill="#131B28" d="M-43.6,259.1l0.4-1.8L-43.6,259.1C-43.6,259.1-43.6,259.1-43.6,259.1L-43.6,259.1z"/>
	<path fill="#131B28" d="M-44.1,259.5C-44.1,259.5-44.1,259.5-44.1,259.5c-1.1,0-4.4,0-6.8,0C-47.9,259.6-44.1,259.5-44.1,259.5
		L-44.1,259.5z"/>
	<path fill="#131B28" d="M-53.1,253c0-0.2,0.2-0.5,0.4-0.5l-0.5,0C-53.4,254.6-53.1,253-53.1,253L-53.1,253z"/>
	<path fill="#131B28" d="M-50.6,259.5C-50.6,259.5-50.6,259.5-50.6,259.5C-50.6,259.5-50.6,259.5-50.6,259.5z"/>
	<path fill="#131B28" d="M-43.2,255.3c0.2,0,0.3,0.2,0.3,0.4l-0.4,1.8l-0.1,0.3"/>
	<path fill="#131B28" d="M-48.8,259.5L-48.8,259.5L-48.8,259.5z"/>
	<path fill="#131B28" d="M-49.7,259.5L-49.7,259.5L-49.7,259.5z"/>
	<path fill="#131B28" d="M-50,259.5C-50,259.5-50.1,259.5-50,259.5C-50.1,259.5-50,259.5-50,259.5z"/>
	<path fill="#131B28" d="M-50.3,259.5L-50.3,259.5L-50.3,259.5z"/>
	<path fill="#131B28" d="M-49.8,259.5c-0.1,0-0.2,0-0.2,0C-49.9,259.5-49.9,259.5-49.8,259.5z"/>
	<path fill="#131B28" d="M-48.8,259.5c-0.3,0-0.6,0-0.9,0C-49.4,259.5-49.1,259.5-48.8,259.5z"/>
	<path fill="#131B28" d="M-44.1,259.5L-44.1,259.5c-0.8,0-2.8,0-4.7,0C-46.9,259.5-44.9,259.5-44.1,259.5z"/>
	<path fill="#131B28" d="M-43.6,259.1l0.3-1.5L-43.6,259.1C-43.6,259.1-43.6,259.1-43.6,259.1L-43.6,259.1z"/>
	<path fill="#131B28" d="M-50.1,259.5h-0.2H-50.1z"/>
	<path fill="#131B28" d="M-50.7,259.5h-0.3H-50.7z"/>
	<path fill="#131B28" d="M-50.4,259.5h-0.2H-50.4z"/>
	<path fill="#131B28" d="M-104.6,253l0.6-2.6l-0.7,2.9l-0.6,3l0.6-2.6C-104.7,253.6-104.6,253.2-104.6,253L-104.6,253z"/>
	<path fill="#131B28" d="M-97.7,242.3h-4.1c-0.2,0-0.4,0.2-0.5,0.4l-0.4,1.7l-0.4,1.7c0,0.2,0.1,0.4,0.3,0.4h4.1
		c0.2,0,0.4-0.2,0.5-0.4l0.4-1.7l0.4-1.7v0C-97.3,242.4-97.5,242.3-97.7,242.3L-97.7,242.3z"/>
	<path fill="#131B28" d="M-98.6,247.9L-98.6,247.9l-1.2,5.5L-98.6,247.9z"/>
	<path fill="#131B28" d="M-110.4,266.2c0,0,2.1,0,3.4,0C-108,266.3-109.6,266.2-110.4,266.2C-110.4,266.2-110.4,266.2-110.4,266.2
		L-110.4,266.2z"/>
	<path fill="#131B28" d="M-103.4,247.9l-0.6,2.6L-103.4,247.9z"/>
	<path fill="#131B28" d="M-98.8,247.6h-4.1c-0.2,0-0.4,0.2-0.5,0.4l-0.6,2.6l-0.6,2.6c0,0.2-0.1,0.5-0.2,0.7l-0.6,2.6l-0.6,2.6
		c0,0.2-0.1,0.5-0.2,0.7c0,0-0.8,2.3-2.1,2.3c-0.1,0-0.1,0-0.2,0c-0.6,0-1.1,0-1.1,0h0c-0.2,0-0.4,0.2-0.5,0.4l-0.4,1.8l-0.4,1.8
		c0,0.2,0.1,0.4,0.3,0.4c0.7,0,2.4,0,3.4,0c3.2,0,4.9-1.8,6-6.9l1.3-5.9l1.2-5.5C-98.5,247.7-98.6,247.6-98.8,247.6L-98.8,247.6z"/>
	<path fill="#131B28" d="M-40.6,259.3c-0.2,0-0.3-0.2-0.3-0.4l3.1-14.4"/>
	<path fill="#131B28" d="M-36.3,259l1.2-6.2L-36.3,259z"/>
	<path fill="#131B28" d="M-40.9,259.2c0-0.1,0-0.3,0-0.5l1.5-6.9l-1.5,7.2c0,0.2,0.1,0.4,0.3,0.4h0.4
		C-40.4,259.3-40.8,259.3-40.9,259.2L-40.9,259.2z"/>
	<path fill="#131B28" d="M-36.6,259.3c-0.1,0-0.4,0.1-0.6,0.1h0.4c0.2,0,0.4-0.2,0.4-0.4l0.1-0.4C-36.3,258.8-36.5,259.2-36.6,259.3
		L-36.6,259.3z"/>
	<path fill="#131B28" d="M-35.7,255.9l0.6-2.7c0,0,0,0,0,0L-35.7,255.9L-35.7,255.9z"/>
	<path fill="#131B28" d="M-23.5,245.5l0.2,0.7c0,0.2-0.1,0.4-0.3,0.4"/>
	<path fill="#131B28" d="M-36.3,258.6l0.5-2.7L-36.3,258.6z"/>
	<path fill="#131B28" d="M-23.7,244.8l0.2,0.7L-23.7,244.8z"/>
	<path fill="#131B28" d="M-35.2,253.2c0-0.2,0.1-0.5,0.2-0.7l0.6-2.8l-0.7,3.1L-35.2,253.2L-35.2,253.2z"/>
	<path fill="#131B28" d="M-37.8,244.3c0,0.2-0.1,0.4-0.1,0.6l-1.5,6.9l1.5-7.2L-37.8,244.3L-37.8,244.3z"/>
	<path fill="#131B28" d="M-23.4,246.2l-0.2-0.7l-0.2-0.7l-0.1-0.4c-0.3-1.3-1.3-2-3.4-2l-3.3,0l-3,0h-0.3H-37
		c-0.2,0-0.4,0.2-0.5,0.4h0l-0.2,0.7l-0.2,0.8l0,0.2l-1.5,7.2l-1.5,6.9c0,0.2-0.1,0.4,0,0.5c0,0.1,0.4,0.2,0.6,0.2h3.1
		c0.2,0,0.5,0,0.6-0.1c0.1,0,0.3-0.4,0.3-0.7l0.5-2.7l0.5-2.7c0,0,0,0,0,0l0.1-0.4l0.7-3.1l0.6-2.8c0-0.2,0.2-0.4,0.5-0.4l9.7,0
		C-23.4,246.6-23.3,246.4-23.4,246.2L-23.4,246.2z"/>
	<path fill="#131B28" d="M-10.9,239.9c-0.2,0-0.5,0-0.7,0h-3.1c-0.2,0-0.5,0.1-0.6,0.3l-6.9,10.1c-0.1,0.2-0.2,0.1-0.3-0.1L-23,248
		c0-0.2-0.3-0.4-0.5-0.4h-4.4c-0.2,0-0.3,0.2-0.3,0.4l2,6.9c0.1,0.2,0.1,0.5,0,0.7L-27,259c-0.1,0.2,0.1,0.4,0.3,0.4h4.4
		c0.2,0,0.4-0.2,0.5-0.4l0.9-3.4c0.1-0.2,0.2-0.5,0.3-0.7l11.2-14.8c0.1-0.2,0.1-0.3-0.1-0.3L-10.9,239.9L-10.9,239.9z"/>
	<path fill="#131B28" d="M-46,248.5L-46,248.5c0,0.2-0.2,0.4-0.4,0.4H-52c-0.2,0-0.3-0.1-0.3-0.3c0,0,0,0,0,0c0,0,0,0,0,0
		c0,0,0,0,0,0c0,0,0,0,0-0.1c0.5-1.4,1.6-2.4,3.7-2.4C-46.3,246.2-45.8,247.3-46,248.5L-46,248.5z M-47.6,242.1
		c-7.2,0-8.9,4.4-9.9,8.8c-1,4.5-0.9,8.7,6.6,8.7h0.3c0,0,0,0,0.1,0h0.2h0.1h0.2c0,0,0.1,0,0.1,0c0.1,0,0.1,0,0.2,0h0.1
		c0.3,0,0.6,0,0.9,0h0c2,0,3.9,0,4.7,0c0.2,0,0.4-0.2,0.4-0.4l0.3-1.5l0.1-0.3l0.4-1.8c0-0.2-0.1-0.4-0.3-0.4h-6.7
		c-2.7,0-3.5-0.7-3.2-2.8h10.7l0,0c0,0,0,0,0,0c0.2,0,0.3-0.1,0.4-0.3c0,0,0-0.1,0-0.1l0,0C-40.4,246.1-40.8,242.1-47.6,242.1
		L-47.6,242.1z"/>
	<path fill="#131B28" d="M-81.6,248.5l-0.1,0.4c0,0,0,0,0,0l-0.8,2.9l-0.8,2.9c-0.1,0.2-0.3,0.4-0.5,0.4h-4.3c-3.2,0-4-2.5-3.2-6.3
		c0.8-3.8,2.3-6.2,5.5-6.4C-81.5,241.9-80.6,245-81.6,248.5L-81.6,248.5z M-78.7,254.8c0,0,2-4.9,2.5-7.7c0.6-3.8-1.3-9.3-8.6-9.3
		c-7.3,0-10.4,5.2-11.6,10.9c-1.2,5.7,0.4,10.8,7.6,10.7l5.7,0l5.3,0c0.2,0,0.4-0.2,0.5-0.4l0.9-3.5c0.1-0.2-0.1-0.4-0.3-0.4l-0.9,0
		l-0.9,0C-78.7,255.1-78.8,255-78.7,254.8C-78.7,254.8-78.7,254.8-78.7,254.8L-78.7,254.8z"/>
	<path fill="#131B28" d="M-42.7,251.5c0,0.1-0.1,0.2-0.2,0.2c-0.1,0-0.2-0.1-0.2-0.2c0-0.1,0.1-0.2,0.2-0.2
		C-42.8,251.2-42.7,251.3-42.7,251.5z"/>
	<path fill="#0868AC" d="M-134.3,245.1c-2,2.9-1.8,6.6-0.2,9.7c0,0.1,0.1,0.1,0.1,0.2c0,0,0,0.1,0.1,0.1c0,0,0,0.1,0,0.1
		c0,0,0.1,0.1,0.1,0.1c0,0.1,0.1,0.2,0.1,0.3c0,0,0.1,0.1,0.1,0.1c0.1,0.1,0.1,0.2,0.2,0.3c0,0,0,0.1,0.1,0.1
		c0.1,0.1,0.2,0.2,0.2,0.4c0,0,0,0,0,0c0,0,0,0,0,0.1c0.1,0.1,0.1,0.2,0.2,0.3c0,0,0.1,0.1,0.1,0.1c0.1,0.1,0.1,0.2,0.2,0.3
		c0,0,0.1,0.1,0.1,0.1c0.1,0.1,0.2,0.2,0.3,0.3c0,0,0,0,0,0c0,0,0,0,0,0c0.1,0.1,0.2,0.2,0.3,0.3c0,0,0.1,0.1,0.1,0.1
		c0.1,0.1,0.2,0.2,0.2,0.2c0,0,0.1,0.1,0.1,0.1c0.1,0.1,0.2,0.2,0.3,0.3c0,0,0,0,0,0c0,0,0,0,0.1,0c0.1,0.1,0.2,0.2,0.3,0.2
		c0,0,0.1,0.1,0.1,0.1c0.1,0.1,0.2,0.1,0.2,0.2c0,0,0.1,0.1,0.1,0.1c0.1,0.1,0.2,0.1,0.3,0.2c0,0,0.1,0,0.1,0.1c0,0,0,0,0,0
		c0.1,0.1,0.2,0.1,0.3,0.2c0,0,0.1,0.1,0.1,0.1c0.1,0.1,0.3,0.2,0.4,0.3c0,0,0.1,0,0.1,0.1c0.1,0.1,0.2,0.1,0.3,0.2
		c0.1,0,0.1,0.1,0.2,0.1c0.1,0,0.1,0.1,0.2,0.1c0,0,0,0,0.1,0c0,0,0.1,0,0.1,0c0.1,0.1,0.2,0.1,0.4,0.2c0,0,0,0,0.1,0
		c0.1,0.1,0.3,0.1,0.4,0.2c0,0,0.1,0,0.1,0c0.1,0,0.3,0.1,0.4,0.1c0,0,0,0,0,0c0.1,0.1,0.3,0.1,0.4,0.1c0,0,0.1,0,0.1,0
		c0.1,0,0.3,0.1,0.4,0.1c9.7,1.8,12.5-5.8,12.5-5.8c-2.4,3.1-6.6,3.9-10.6,3c-0.2,0-0.3-0.1-0.4-0.1c0,0-0.1,0-0.1,0
		c-0.1,0-0.3-0.1-0.4-0.1c0,0,0,0-0.1,0c-0.1,0-0.3-0.1-0.4-0.1c0,0-0.1,0-0.1,0c-0.1-0.1-0.3-0.1-0.4-0.2c0,0-0.1,0-0.1,0
		c-0.1-0.1-0.2-0.1-0.3-0.2c0,0-0.1,0-0.1,0c-0.1,0-0.2-0.1-0.3-0.1c-0.1,0-0.1-0.1-0.2-0.1c-0.1-0.1-0.2-0.1-0.3-0.2
		c0,0-0.1,0-0.1-0.1c-0.1-0.1-0.3-0.2-0.4-0.3c0,0-0.1,0-0.1-0.1c-0.1-0.1-0.2-0.1-0.3-0.2c0,0-0.1,0-0.1-0.1
		c-0.1-0.1-0.2-0.1-0.3-0.2c0,0-0.1-0.1-0.1-0.1c-0.1-0.1-0.2-0.1-0.3-0.2c0,0-0.1-0.1-0.1-0.1c-0.1-0.1-0.2-0.2-0.3-0.3
		c0,0,0,0,0,0c-0.1-0.1-0.2-0.2-0.3-0.3c0,0-0.1-0.1-0.1-0.1c-0.1-0.1-0.2-0.2-0.2-0.2c0,0-0.1-0.1-0.1-0.1
		c-0.1-0.1-0.2-0.2-0.3-0.3c0,0,0,0,0,0c-0.1-0.1-0.2-0.2-0.3-0.3c0,0-0.1-0.1-0.1-0.1c-0.1-0.1-0.1-0.2-0.2-0.3
		c0,0-0.1-0.1-0.1-0.1c-0.1-0.1-0.2-0.2-0.2-0.3c-2.2-3-3-7.2-1.2-10.6"/>
	<path fill="#0868AC" d="M-128.1,242.7c-1.5,2.1-1.4,4.9-0.2,7.1c0.2,0.4,0.4,0.7,0.6,1.1c0.2,0.3,0.5,0.7,0.7,0.9
		c0.1,0.1,0.2,0.2,0.3,0.3c0,0,0.1,0.1,0.1,0.1c0.1,0.1,0.2,0.2,0.3,0.3c0,0,0,0,0,0c0,0,0,0,0,0c0.1,0.1,0.3,0.2,0.4,0.3
		c0,0,0.1,0,0.1,0.1c0.1,0.1,0.3,0.2,0.4,0.3c0,0,0,0,0,0c0.1,0,0.1,0.1,0.2,0.1c0,0,0.1,0,0.1,0.1c0.1,0.1,0.2,0.1,0.3,0.2
		c0,0,0,0,0,0c0.1,0.1,0.2,0.1,0.3,0.1c0,0,0.1,0,0.1,0c0.1,0,0.1,0.1,0.2,0.1c0,0,0,0,0,0c0.1,0.1,0.3,0.1,0.4,0.2c0,0,0.1,0,0.1,0
		c0.1,0,0.2,0.1,0.3,0.1c0,0,0.1,0,0.1,0.1c0.1,0,0.2,0.1,0.3,0.1c0,0,0.1,0,0.1,0c0.1,0,0.3,0.1,0.4,0.1c7.5,1.2,9.2-4.5,9.2-4.5
		c-1.6,2.2-4.6,3.3-7.8,2.5c-0.1,0-0.3-0.1-0.4-0.1c0,0-0.1,0-0.1,0c-0.1,0-0.2-0.1-0.3-0.1c0,0-0.1,0-0.1-0.1
		c-0.1,0-0.2-0.1-0.3-0.1c0,0-0.1,0-0.1,0c-0.1-0.1-0.3-0.1-0.4-0.2c-0.1,0-0.1-0.1-0.2-0.1c0,0-0.1,0-0.1-0.1
		c-0.1,0-0.2-0.1-0.2-0.1c0,0,0,0-0.1,0c-0.1-0.1-0.2-0.1-0.3-0.2c0,0-0.1,0-0.1-0.1c-0.1,0-0.1-0.1-0.2-0.1
		c-0.1-0.1-0.3-0.2-0.4-0.3c0,0-0.1,0-0.1-0.1c-1.4-1.1-2.5-2.6-3.1-4.4c-0.6-1.8-0.4-3.8,0.5-5.4"/>
	<path fill="#0868AC" d="M-122.8,240.9c-0.9,1.3-0.9,2.8-0.3,4.2c0.6,1.5,1.9,2.6,3.4,3.2c0.1,0,0.1,0,0.2,0.1c0,0,0.1,0,0.1,0
		c0.1,0,0.2,0.1,0.3,0.1c4.1,0.8,5.3-2.1,5.6-2.6c-1,1.4-2.6,1.8-4.7,1.3c-0.2,0-0.3-0.1-0.5-0.2c-0.2-0.1-0.4-0.2-0.6-0.2
		c-0.4-0.2-0.7-0.4-1-0.6c-1.8-1.4-2.9-4-1.8-6.2"/>
	<path fill="#0868AC" d="M-76.1,265.4l-1.2,2.7h-1.3l0.1-2.5l-1,2.5h-1.3l0-2.7l0.1-0.7h0.9l-0.2,2.7l1-2.7h1.3l-0.1,2.7l1-2.7h0.8
		L-76.1,265.4L-76.1,265.4z"/>
	<path fill="#0868AC" d="M-74.1,266.2c0.1-0.5,0.1-0.6-0.2-0.6h-0.4l-0.3,1.2l-0.4,1.3h-0.8l0.6-3l0.1-0.4h0.7l0.1,0.2
		c0,0,0.4-0.2,0.8-0.2c0.8,0,0.8,0.6,0.6,1.5L-74.1,266.2L-74.1,266.2z"/>
	<path fill="#0868AC" d="M-71.6,264.3c-0.3,0-0.6-0.1-0.5-0.5c0.1-0.4,0.4-0.5,0.7-0.5c0.3,0,0.6,0.1,0.5,0.5
		C-71,264.2-71.2,264.3-71.6,264.3L-71.6,264.3z M-71.9,268.1h-0.8l0.1-1.3l0.3-1.2l-0.5-0.1l0.1-0.7h1.5L-71.9,268.1L-71.9,268.1z"
		/>
	<path fill="#0868AC" d="M-68.6,265.5l-1,0.1l-0.3,1.3c-0.1,0.4-0.1,0.5,0.2,0.5h0.6l-0.1,0.7c0,0-0.6,0.2-0.8,0.2
		c-1,0-1-0.5-0.8-1.3l0.3-1.3l-0.5-0.1l0.2-0.7h0.6l0.3-0.9h0.8l-0.2,0.9h0.9L-68.6,265.5L-68.6,265.5z"/>
	<path fill="#0868AC" d="M-66.6,265.5c-0.4,0-0.7,0.2-0.8,0.6l1.3-0.1C-66.1,265.8-66.1,265.5-66.6,265.5L-66.6,265.5z M-67.5,266.8
		c-0.1,0.4,0.1,0.6,0.6,0.6h1.3l-0.1,0.6c0,0-0.8,0.2-1.4,0.2c-1.5,0-1.5-0.8-1.3-1.7c0.2-0.9,0.5-1.7,2-1.7c1.4,0,1.5,0.8,1.1,2.1
		H-67.5L-67.5,266.8z"/>
	<path fill="#0868AC" d="M-62.3,268.1H-63l0.1-1.3l0.5-2.5l-0.5-0.1l0.2-0.7h1.5L-62.3,268.1L-62.3,268.1z"/>
	<path fill="#0868AC" d="M-59.5,265.5c-0.4,0-0.7,0.2-0.8,0.6l1.3-0.1C-59,265.8-59,265.5-59.5,265.5L-59.5,265.5z M-60.4,266.8
		c-0.1,0.4,0.1,0.6,0.6,0.6h1.3l-0.1,0.6c0,0-0.8,0.2-1.4,0.2c-1.5,0-1.5-0.8-1.3-1.7c0.2-0.9,0.5-1.7,2-1.7c1.4,0,1.5,0.8,1.1,2.1
		H-60.4L-60.4,266.8z"/>
	<path fill="#0868AC" d="M-54.7,265.6c0,0-1,0-1.2,0c-0.6,0-0.6,0.2-0.7,0.4l0,0.2l1.8,0.1c0,0,0,0.6-0.1,0.9
		c-0.1,0.5-0.7,1.1-1.7,1.1c-0.5,0-1.3-0.2-1.3-0.2l0.1-0.7h1.2c0.5,0,0.6-0.1,0.7-0.3l0-0.2l-1.8-0.1c0,0-0.1-0.4,0-0.9
		c0.1-0.6,0.7-1.1,1.7-1.1c0.5,0,1.3,0.2,1.3,0.2L-54.7,265.6L-54.7,265.6z"/>
	<path fill="#0868AC" d="M-51.4,265.6c0,0-1,0-1.2,0c-0.6,0-0.6,0.2-0.7,0.4l0,0.2l1.8,0.1c0,0,0,0.6-0.1,0.9
		c-0.1,0.5-0.7,1.1-1.7,1.1c-0.5,0-1.3-0.2-1.3-0.2l0.1-0.7h1.2c0.5,0,0.6-0.1,0.7-0.3l0-0.2l-1.8-0.1c0,0-0.1-0.4,0-0.9
		c0.1-0.6,0.7-1.1,1.7-1.1c0.5,0,1.3,0.2,1.3,0.2L-51.4,265.6L-51.4,265.6z"/>
	<path fill="#0868AC" d="M-50.3,268.7H-51l0-0.5c-0.2,0-0.4-0.2-0.3-0.5c0.1-0.4,0.3-0.5,0.7-0.5c0.3,0,0.6,0.1,0.5,0.5L-50.3,268.7
		L-50.3,268.7z"/>
	<path fill="#0868AC" d="M-45.9,265.6c-0.5,0-0.7,0.3-0.8,0.8c-0.1,0.5-0.1,0.9,0.4,0.9h0.7l0.4-1.7H-45.9z M-44.8,267.7l-0.1,0.4
		l-0.7,0l-0.1-0.2c0,0-0.6,0.3-1,0.3c-1.1,0-1.1-0.9-0.9-1.7c0.2-0.9,0.6-1.7,1.7-1.7c0.4,0,0.9,0.2,0.9,0.2l0.4-1.4h0.8
		L-44.8,267.7L-44.8,267.7z"/>
	<path fill="#0868AC" d="M-42,265.6c-0.6,0-0.9,0.4-1,0.9c-0.1,0.5-0.1,0.9,0.6,0.9c0.7,0,0.9-0.4,1-0.9
		C-41.3,265.9-41.3,265.6-42,265.6L-42,265.6z M-42.6,268.2c-1.4,0-1.5-0.9-1.3-1.7c0.2-0.9,0.7-1.7,2-1.7c1.4,0,1.5,0.8,1.3,1.7
		C-40.7,267.4-41.2,268.2-42.6,268.2z"/>
	<path fill="#0868AC" d="M-34.8,268.1l0.1-1.3l0.1-0.4c0.1-0.5,0.2-0.9-0.3-0.9h-0.4c0,0.3,0,0.5-0.1,0.9l-0.4,1.7h-0.8l0.1-1.3
		l0.1-0.4c0.1-0.5,0.2-0.9-0.3-0.9H-37l-0.5,2.5h-0.9l0.7-3.4h0.7l0.1,0.2c0,0,0.5-0.2,0.9-0.2c0.3,0,0.5,0.1,0.6,0.3
		c0.2-0.1,0.6-0.3,1-0.3c1.1,0,1,0.9,0.8,1.7l-0.4,1.7L-34.8,268.1L-34.8,268.1z"/>
	<path fill="#0868AC" d="M-31.3,265.6c-0.6,0-0.9,0.4-1,0.9c-0.1,0.5-0.1,0.9,0.6,0.9c0.7,0,0.9-0.4,1-0.9
		C-30.6,265.9-30.6,265.6-31.3,265.6z M-31.9,268.2c-1.4,0-1.5-0.9-1.3-1.7c0.2-0.9,0.7-1.7,2-1.7c1.4,0,1.5,0.8,1.3,1.7
		C-30,267.4-30.5,268.2-31.9,268.2z"/>
	<path fill="#0868AC" d="M-27.5,266.2c0.1-0.5,0.1-0.6-0.2-0.6h-0.4l-0.3,1.2l-0.4,1.3h-0.8l0.6-3l0.1-0.4h0.7l0.1,0.2
		c0,0,0.4-0.2,0.8-0.2c0.8,0,0.8,0.6,0.6,1.5L-27.5,266.2L-27.5,266.2z"/>
	<path fill="#0868AC" d="M-24.5,265.5c-0.4,0-0.7,0.2-0.8,0.6l1.3-0.1C-24,265.8-24,265.5-24.5,265.5L-24.5,265.5z M-25.4,266.8
		c-0.1,0.4,0.1,0.6,0.6,0.6h1.3l-0.1,0.6c0,0-0.8,0.2-1.4,0.2c-1.5,0-1.5-0.8-1.3-1.7c0.2-0.9,0.5-1.7,2-1.7c1.4,0,1.5,0.8,1.1,2.1
		H-25.4L-25.4,266.8z"/>
	<path fill="#0868AC" d="M-22.5,268.2c-0.3,0-0.6-0.1-0.5-0.5c0.1-0.4,0.3-0.5,0.7-0.5c0.3,0,0.5,0.1,0.5,0.5
		C-21.9,268.1-22.2,268.2-22.5,268.2z"/>
</g>
</svg>
