<?xml version="1.0" encoding="utf-8"?>
<!-- Generator: Adobe Illustrator 19.0.0, SVG Export Plug-In . SVG Version: 6.00 Build 0)  -->
<svg version="1.1" id="svg5358" xmlns:svg="http://www.w3.org/2000/svg"
	 xmlns="http://www.w3.org/2000/svg" xmlns:xlink="http://www.w3.org/1999/xlink" x="0px" y="0px" viewBox="115.9 191.3 176.4 38.8"
	 enable-background="new 115.9 191.3 176.4 38.8" xml:space="preserve">
<g>
	<path id="path5056" fill="#706D6E" d="M291.7,208.9v-3.1h-3.8V201l-0.1,0l-3.6,1.1l-0.1,0v3.6h-5.7v-2c0-0.9,0.2-1.7,0.6-2.1
		c0.4-0.5,1-0.7,1.7-0.7c0.5,0,1.1,0.1,1.7,0.4l0.1,0.1v-3.2l-0.1,0c-0.5-0.2-1.2-0.3-2.1-0.3c-1.1,0-2.1,0.2-3,0.7
		c-0.9,0.5-1.6,1.2-2.1,2c-0.5,0.9-0.7,1.9-0.7,3v2.2H272v3.1h2.7v12.9h3.8v-12.9h5.7v8.2c0,3.4,1.6,5.1,4.8,5.1
		c0.5,0,1.1-0.1,1.6-0.2c0.6-0.1,1-0.2,1.2-0.4l0.1,0v-3.1l-0.2,0.1c-0.2,0.1-0.5,0.3-0.8,0.3c-0.3,0.1-0.6,0.1-0.8,0.1
		c-0.7,0-1.3-0.2-1.6-0.6c-0.3-0.4-0.5-1.1-0.5-2.1v-7.6H291.7L291.7,208.9z M263.5,219.1c-1.4,0-2.5-0.5-3.2-1.4
		c-0.8-0.9-1.2-2.2-1.2-3.9c0-1.7,0.4-3,1.2-4c0.8-0.9,1.9-1.4,3.2-1.4c1.3,0,2.4,0.4,3.1,1.3c0.8,0.9,1.1,2.2,1.1,3.9
		c0,1.7-0.4,3.1-1.1,4C266,218.6,264.9,219.1,263.5,219.1 M263.7,205.4c-2.6,0-4.7,0.8-6.2,2.3c-1.5,1.5-2.3,3.6-2.3,6.3
		c0,2.5,0.7,4.5,2.2,6c1.5,1.5,3.4,2.2,5.9,2.2c2.6,0,4.6-0.8,6.1-2.3c1.5-1.5,2.3-3.6,2.3-6.2c0-2.5-0.7-4.6-2.1-6
		C268.1,206.2,266.2,205.4,263.7,205.4 M249,205.4c-1.8,0-3.3,0.5-4.4,1.4c-1.1,0.9-1.7,2.1-1.7,3.6c0,0.8,0.1,1.4,0.4,2
		c0.2,0.6,0.6,1.1,1.1,1.5c0.5,0.4,1.3,0.9,2.3,1.3c0.9,0.4,1.5,0.7,1.9,0.9c0.4,0.2,0.7,0.5,0.8,0.7c0.2,0.2,0.2,0.5,0.2,0.9
		c0,1.1-0.8,1.6-2.5,1.6c-0.6,0-1.3-0.1-2.1-0.4c-0.8-0.3-1.5-0.6-2.1-1.1l-0.2-0.1v3.7l0.1,0c0.5,0.2,1.2,0.5,2,0.6
		c0.8,0.2,1.5,0.2,2.2,0.2c1.9,0,3.5-0.5,4.7-1.4c1.2-0.9,1.7-2.1,1.7-3.6c0-1.1-0.3-2-0.9-2.8c-0.6-0.7-1.7-1.4-3.2-2
		c-1.2-0.5-1.9-0.9-2.3-1.2c-0.3-0.3-0.5-0.7-0.5-1.2c0-0.5,0.2-0.8,0.6-1.1c0.4-0.3,0.9-0.5,1.6-0.5c0.6,0,1.3,0.1,1.9,0.3
		c0.6,0.2,1.2,0.5,1.7,0.8l0.2,0.1v-3.5l-0.1,0c-0.4-0.2-1-0.3-1.7-0.5C250.2,205.5,249.6,205.4,249,205.4 M232.9,219.1
		c-1.4,0-2.5-0.5-3.2-1.4c-0.8-0.9-1.2-2.2-1.2-3.9c0-1.7,0.4-3,1.2-4c0.8-0.9,1.9-1.4,3.2-1.4c1.3,0,2.4,0.4,3.1,1.3
		c0.8,0.9,1.1,2.2,1.1,3.9c0,1.7-0.4,3.1-1.1,4C235.4,218.6,234.3,219.1,232.9,219.1 M233.1,205.4c-2.6,0-4.7,0.8-6.2,2.3
		c-1.5,1.5-2.3,3.6-2.3,6.3c0,2.5,0.7,4.5,2.2,6c1.5,1.5,3.4,2.2,5.9,2.2c2.6,0,4.6-0.8,6.1-2.3c1.5-1.5,2.3-3.6,2.3-6.2
		c0-2.5-0.7-4.6-2.1-6C237.6,206.2,235.6,205.4,233.1,205.4 M218.8,208.6v-2.8h-3.8v16h3.8v-8.2c0-1.4,0.3-2.5,0.9-3.4
		c0.6-0.9,1.4-1.3,2.4-1.3c0.3,0,0.7,0.1,1.1,0.2c0.4,0.1,0.7,0.2,0.9,0.4l0.2,0.1v-3.8l-0.1,0c-0.4-0.1-0.8-0.2-1.5-0.2
		c-0.9,0-1.8,0.3-2.5,0.9C219.7,207,219.2,207.7,218.8,208.6C218.9,208.6,218.8,208.6,218.8,208.6z M208.3,205.4
		c-1.7,0-3.3,0.4-4.6,1.1c-1.3,0.7-2.3,1.8-3,3.1c-0.7,1.3-1,2.9-1,4.6c0,1.5,0.3,2.9,1,4.1c0.7,1.2,1.6,2.2,2.8,2.9
		c1.2,0.7,2.6,1,4.1,1c1.8,0,3.3-0.4,4.5-1.1l0,0v-3.5l-0.2,0.1c-0.6,0.4-1.2,0.7-1.8,1c-0.7,0.2-1.3,0.3-1.8,0.3
		c-1.5,0-2.7-0.5-3.5-1.4c-0.9-0.9-1.3-2.2-1.3-3.8c0-1.6,0.5-2.9,1.4-3.9c0.9-1,2.1-1.5,3.5-1.5c1.2,0,2.4,0.4,3.6,1.2l0.2,0.1
		v-3.6l-0.1,0c-0.4-0.2-1-0.4-1.7-0.6C209.7,205.5,209,205.4,208.3,205.4 M197.1,205.8h-3.8v16h3.8V205.8z M195.2,199
		c-0.6,0-1.2,0.2-1.6,0.6c-0.4,0.4-0.7,0.9-0.7,1.6c0,0.6,0.2,1.1,0.7,1.5c0.4,0.4,1,0.6,1.6,0.6c0.6,0,1.2-0.2,1.6-0.6
		c0.4-0.4,0.7-0.9,0.7-1.5c0-0.6-0.2-1.1-0.7-1.6C196.4,199.2,195.9,199,195.2,199 M185.8,204.6v17.2h3.8v-22.4h-5.3l-6.8,16.6
		l-6.6-16.6h-5.5v22.4h3.6v-17.2h0.1l6.9,17.2h2.7l6.8-17.2H185.8L185.8,204.6z"/>
	<path id="path5058" fill="#F1511B" d="M134.7,209.7H117V192h17.7V209.7z"/>
	<path id="path5060" fill="#80CC28" d="M154.3,209.7h-17.7V192h17.7V209.7z"/>
	<path id="path5062" fill="#00ADEF" d="M134.7,229.3H117v-17.7h17.7V229.3z"/>
	<path id="path5064" fill="#FBBC09" d="M154.3,229.3h-17.7v-17.7h17.7V229.3z"/>
</g>
</svg>
